<?xml version="1.0" encoding="UTF-8"?><svg id="Layer_2" xmlns="http://www.w3.org/2000/svg" viewBox="0 0 312.82 187.01"><defs><style>.cls-1{letter-spacing:.23em;}.cls-2,.cls-3{fill:#fff;}.cls-4{letter-spacing:.25em;}.cls-5{letter-spacing:.25em;}.cls-3{font-family:Cygre-Regular, Cygre;font-size:46.43px;}</style></defs><g id="Layer_1-2"><path class="cls-2" d="M241.52,1.04c64.9-11.03,98.04,68.26,44.79,104.69-44.77,30.62-104-14.59-87.05-66.22,5.71-17.38,23.84-35.34,42.26-38.47ZM251.97,19.29c-48.17,2.6-47.73,82.48,9.55,74.65,45.49-6.21,38.36-77.24-9.55-74.65Z"/><path class="cls-2" d="M0,115.01L55.99,3.08l55.98,111.92c-7.54-.22-15.17,2.15-20.97-3.75-8.6-8.76-30.37-66.92-35.03-69.14l-24.73,54.68h37.76l11.72,18.23H0Z"/><polygon class="cls-2" points="138.03 .42 138.03 94.18 203.14 94.18 203.14 115.01 117.2 115.01 117.2 .42 138.03 .42"/><text class="cls-3" transform="translate(1.48 174.38)"><tspan class="cls-5" x="0" y="0">THE </tspan><tspan class="cls-1" x="144.49" y="0">B</tspan><tspan class="cls-4" x="185.35" y="0">AND</tspan></text></g></svg>