<?xml version="1.0" encoding="UTF-8"?><svg id="Layer_2" xmlns="http://www.w3.org/2000/svg" viewBox="0 0 560.73 178.41"><defs><style>.cls-1{fill:#fff;}</style></defs><g id="Layer_1-2"><path class="cls-1" d="M319.47,1.38v81.23h-34.55l-1.82-1.82v-27.89c0-2.4-7.27-2.4-7.27,0v27.89l-1.82,1.82h-33.95l-1.82-1.82V1.38c3.38-1.78,37.58-1.89,37.58,0v28.49c0,2.41,7.27,2.4,7.27,0V1.38c12.32.17,24.07-1.35,36.37,0Z"/><path class="cls-1" d="M82.44,2.51v77.59l-1.82,1.82h-27.89l-13.17-10.83-12.29,10.83H1.82l-1.82-1.82V1.9c2.77-.45,4.42,1.26,6.46,2.64,12.13,8.18,23.01,20.3,35.98,27.67V2.51l1.82-1.82h36.37l1.82,1.82Z"/><path class="cls-1" d="M230.01,80.05l-1.23,2.42h-75.78V1.25h72.14c.54,0,1.86-2.02,3.04-.63l.27,3.94-26.93,37.33,28.49,38.16Z"/><path class="cls-1" d="M461.72.69v36.98c-4.35,4.52-12.73-.87-16.97,3.64v38.8l-1.82,1.82h-35.16l-1.82-1.82v-38.8l-2.01-1.63c-4.77-1.51-12.31,2.01-16.18-2.01V.69h73.96Z"/><polygon class="cls-1" points="138.94 .69 138.94 81.92 99.53 81.92 97.72 80.1 97.72 .69 138.94 .69"/><polygon class="cls-1" points="373.17 .69 373.17 80.1 371.35 81.92 333.16 81.92 333.16 .69 373.17 .69"/><polygon class="cls-1" points="560.73 78.26 559.42 80.73 469.71 80.73 467.99 77.82 513.41 1.88 516.49 2.71 560.73 78.26"/><path class="cls-1" d="M415.52,101.71v25.7c0,1.87,6.31,2.97,6.93-.31l.31-24.67h36.2v74.57h-34.39c-.47,0-2.34-2.33-2.52-3.27-1.46-7.62,1.8-17.25,0-25.2-.39-1.74-6.54-.83-6.54-.49v27.15c0,1.29-2.87,1.75-3.94,1.85-6.27.63-23.73.8-29.76,0-.96-.13-3.22-.93-3.22-1.85v-73.48h36.92Z"/><path class="cls-1" d="M242.49,129.22v-25.7c0-1.29,2.87-1.75,3.94-1.85,6.25-.63,22.97-.77,29.04.01,1.23.16,2.2.27,2.87,1.48l.34,70.57c-.21,1.48-1.07,2.26-2.53,2.53-3.11.59-19.82.51-23.11-.02-3.84-.62-10.43-8.71-13.08-8.62-2.36.08-10.16,8.66-10.85,8.66h-27.87l-.06-74.27c.49-.57,1.07-1,1.86-1.01,2.63-.05,24.48,18.97,28.67,22.01,3.12,2.26,7.18,5.34,10.8,6.21Z"/><path class="cls-1" d="M290.99,177v-74.57h45.97c9.64,0,22.83,10.8,27.3,19.04,12.73,23.45-4.85,55.54-31.64,55.54h-41.63ZM324.3,147.32c13.69,2.4,13.35-17.77,0-15.93v15.93Z"/><path class="cls-1" d="M67.28,135.01h28.6c.13,0,1.28,1.12,1.44,1.46.58,1.23.8,24.79.36,27.12-1.02,5.42-19.32,12.73-24.57,13.8-32.03,6.52-62.14-18.93-50.54-51.99,8.75-24.93,37.65-30.78,60.49-22.44,3.46,1.26,9.09,2.22,7.81,6.72-.98,3.46-6.4,16.25-8.23,19.32-2.98,5-7.6.16-12.15-.44-9.32-1.24-17.43,1.87-16.24,12.63.92,8.34,12.32,9.77,12.32,7.22v-11.58c0-.24.96-1.1.72-1.81Z"/><path class="cls-1" d="M144.75,176.28c-.66-.44-.37-3.07-.05-3.98,1.2-3.45,7.65-12.6,7.86-15.32.18-2.32-1.46-5.46-3.6-2.19-4.29,6.53-6.85,15.36-11.8,21.5h-32.94l.82-5.33c14.16-20.18,26.19-41.78,39.7-62.38,1.57-2.39,4.54-9.1,7.3-5.82l44.47,69.22c1.21,1.14-.53,4.31-1.44,4.31h-50.32Z"/><path class="cls-1" d="M471.99,176.28v-74.57h37.29c.08,0,1.09,1.01,1.09,1.09v72.4c0,.08-1.01,1.09-1.09,1.09h-37.29Z"/></g></svg>