<?xml version="1.0" encoding="UTF-8"?><svg id="Layer_2" xmlns="http://www.w3.org/2000/svg" viewBox="0 0 1376.72 205.72"><defs><style>.cls-1{fill:#fff;}</style></defs><g id="Layer_1-2"><path class="cls-1" d="M530.4.49c74.76-5.53,130.63,36.26,124.01,115-10.14,120.56-213.73,120.77-222.91-2.12C426.7,48.99,466.98,5.18,530.4.49ZM598.23,47.47h-87.88l-1.13,28.17c8.81-.27,17.71.33,26.53.04,4.47-.15,10.3-3.32,14.01.52l-62.99,63.24,17.95,19.06,64.77-62.57c2.8,1.75.56,2.36.56,2.79v37.74l28.17-1.13V47.47Z"/><polygon class="cls-1" points="851.72 136.47 851.72 17.62 853.41 15.93 895.65 15.93 895.65 180.41 837.63 180.41 726.66 59.86 726.66 180.41 683.85 180.41 683.85 15.93 741.87 15.93 851.72 136.47"/><path class="cls-1" d="M353.19,15.93c5.17.58,16.45,4.46,21.27,6.9,42.13,21.36,40.48,91-3.89,108.68l28.25,48.9h-50.13l-25.35-42.81h-67.6v42.81h-43.94V15.93h141.39ZM255.74,100.42h83.93c.64,0,7-1.6,8.14-2,18.47-6.51,18.3-37.63.63-43.95-1.93-.69-9.48-2.49-11.03-2.49h-81.68v48.44Z"/><polygon class="cls-1" points="1376.72 15.93 1376.72 50.85 1246.03 50.85 1246.03 82.4 1376.72 82.4 1376.72 113.94 1246.03 113.94 1246.03 145.49 1376.72 145.49 1376.72 180.41 1202.09 180.41 1202.09 15.93 1376.72 15.93"/><path class="cls-1" d="M42.81,137.6v42.81H0V15.93h140.26c2.5,0,14.43,3.85,17.44,5.09,27.09,11.18,38.73,40.59,33.53,68.41-12.67,67.78-99.8,43.67-148.42,48.17ZM42.81,100.42h85.06c1.07,0,8.96-2.44,10.37-3.15,15.42-7.85,14.55-37.85-4.37-43.4-1.35-.4-8.53-1.89-9.38-1.89H44.5l-1.69,1.69v46.75Z"/><polygon class="cls-1" points="1184.07 15.93 1184.07 51.98 1105.2 51.98 1105.2 178.72 1103.51 180.41 1061.27 180.41 1061.27 51.98 981.28 51.98 981.28 15.93 1184.07 15.93"/><rect class="cls-1" x="919.31" y="15.93" width="43.94" height="164.48"/></g></svg>