<?xml version="1.0" encoding="UTF-8"?><svg id="Layer_2" xmlns="http://www.w3.org/2000/svg" viewBox="0 0 239.85 74.96"><defs><style>.cls-1{fill:#fff;}</style></defs><g id="Layer_1-2"><path class="cls-1" d="M33.95.15c28.57-2.46,49.56,26.48,37.72,52.81-11.64,25.88-47.08,29.81-64.19,7.09C-10.04,36.79,5,2.64,33.95.15ZM43.26,25.72c.02-.19-.01-.37-.07-.56-.16-.54-1.31-2.94-1.63-3.49-.12-.21-.27-.36-.45-.52h-5.12c-.32-.19-.07-.5.05-.79,1.1-2.71,2.6-5.26,3.63-8.01.03-.22-.02-.42-.07-.63-.18-.69-1.11-2.48-1.48-3.23-.23-.47-.5-1.23-1.01-.49l-5.89,12.8c-.23.24-.44.31-.76.35-.98.11-5.31-.21-5.75.06-.52,1.02-1.19,2.08-1.52,3.18-.08.26-.46,1.32.07,1.32h5.61c-.06.49-.33,1.02-.53,1.48-.6,1.35-3.19,6.23-3.08,7.32.01.12,0,.24.07.35l.17.11h23.9c.18-.06.45-.16.5-.35.1-.38-1.37-3.66-1.71-3.93-.08-.06-.5-.28-.56-.28h-15.99c-.02-.24,0-.46.07-.7.08-.31,1.49-3.32,1.67-3.59.08-.12.46-.42.55-.42h9.35ZM31.63,44.42c1.34.07,2.18.14,1.69-1.49-.12-.4-1.42-2.89-1.69-3.01l-5.88-.07c-.7.13-.48.81-.34,1.3,3.92,8.06,7.21,16.64,11.23,24.63.29.57.72,2,1.33.95,3.39-8.35,8.1-16.53,11.41-24.86.24-.6.53-1.13.37-1.81-.07-.24-.27-.21-.46-.23-1.2-.14-4.2-.12-5.41,0-.13.01-.25,0-.38.03-.42.12-2,3.52-1.9,4.06.12.64,1.29.43,1.74.49.19.02.24-.07.2.2l-6.02,12.81-5.89-13.01Z"/><path class="cls-1" d="M137.07,16.31c3.18.32,5.77,2.8,6.03,6.02.28,3.49.09,7.44-.01,10.94-.11,3.78.57,7.21-3.45,9.29-2.52,1.3-8.79.98-11.7.76-.8-.06-1.81.31-2.15-.61l-.11-31.01c.1-.84.3-1.1,1.16-1.19.8-.09,3.08-.1,3.84.03.41.07.93.43.93.87v4.71l.21.21c1.69.12,3.6-.17,5.26,0ZM131.6,22.47v14.82l.21.21h4.71c.26,0,.85-.7.76-1.04l-.06-13.65c-.19-.45-.5-.63-.97-.69-.52-.06-4.08-.06-4.36.07-.06.03-.27.23-.28.27Z"/><path class="cls-1" d="M201.49,10.53c.73-.13,3.08-.13,3.85-.04,2.02.24.46,4.39,1.23,5.69,3.13.41,6.22-.56,8.93,1.59,1.99,1.58,2.39,3.5,2.51,5.94.19,3.72.18,8.48,0,12.2-.27,5.54-2.94,7.31-8.24,7.55-2.25.1-5.41.17-7.62,0-.56-.04-1.34-.06-1.53-.7l-.07-31.38c.01-.51.5-.78.94-.86ZM206.51,37.49h4.92c.26,0,.69-.6.63-.9l-.03-13.82c-.09-.46-.46-.58-.88-.64-.86-.12-3.12-.11-4.01-.02-.46.05-.73.07-.76.62.28,4.55-.35,9.5,0,14,.02.27.08.5.15.75Z"/><path class="cls-1" d="M153.48,33.75c-.14.92-.54,3.44.65,3.71.5.11,3.89.1,4.34-.03.81-.25.34-1.39,1.28-1.77.42-.17,3.91-.19,4.43-.08,1.33.29.65,2.71.3,3.57-.97,2.42-3.05,3.76-5.56,4.13-5.18.77-10.96-.19-11.4-6.42-.3-4.24-.28-9.59,0-13.84.43-6.52,5.71-7.16,11.14-6.71,6.07.5,6.69,6.07,6.31,11.01-.24,3.1-3.02,6.43-6.31,6.43h-5.19ZM153.34,23.02c-.23,1.3.17,3.2,0,4.57l.21.21h4.98s.38-.35.41-.42c.14-.3.14-3.83.07-4.36-.08-.7-.37-.83-1.04-.9-.8-.08-2.97-.11-3.73,0-.45.07-.83.45-.91.89Z"/><path class="cls-1" d="M228.25,36.87c.07.32.46.56.77.61.61.1,3.55.1,4.12-.02.99-.22.5-1.45,1.38-1.8.48-.19,3.53-.18,4.18-.09.35.05.98.22,1.05.61.52,2.83-2.13,6.25-4.85,6.92-4.47,1.12-11.87.38-12.46-5.4-.4-3.91-.31-9.33-.15-13.3.32-7.46,4.16-8.61,11.02-8.1,2.62.19,4.87,1.62,5.9,4.07.68,1.6.75,6,.53,7.78-.33,2.71-3.56,5.6-6.3,5.6h-4.98l-.21.21c.12.84-.17,2.13,0,2.91ZM228.25,27.8h5.05c.1,0,.39-.25.46-.37.24-.43.24-3.48.17-4.13-.08-.7-.29-1.09-1.04-1.18-.64-.07-3.85-.07-4.27.17-.12.07-.37.36-.37.46v5.05Z"/><path class="cls-1" d="M173.11,10.8l4.54,18.52,4.51-18.47c.05-.1.13-.14.22-.19.41-.24,3.75-.24,4.4-.16.97.11,1.26.46,1.14,1.42-.21,1.74-1,4.25-1.42,6.06-1.87,8.14-3.95,16.23-5.81,24.37-.13.56-.59.97-1.14,1.07-.7.13-3.91.11-4.46-.18-.21-.11-.31-.37-.39-.58l-7.33-30.74c-.21-.76.15-1.25.9-1.39s3.18-.13,3.99-.04c.32.04.59.16.86.32Z"/><path class="cls-1" d="M85.29,16.45c-.52-.08-.94-.36-1.03-.91-.11-.69-.11-3.57,0-4.27.05-.3.15-.55.46-.65l16.29-.06c.57.18.65,1.13.69,1.66.07.91.3,4.23-1.04,4.23h-4.57l-.21.21v25.75c0,.86-1.23,1-1.86,1.04-1.03.07-4.09.33-4.09-1.18v-25.62l-.21-.21c-1.37-.14-3.11.19-4.43,0Z"/><path class="cls-1" d="M107.34,16.35c1.14-.12,3.41-.17,4.53-.04.64.07.96.4,1.04,1.04.08.69.1,3.39-.03,3.99-.06.25-.38.69-.62.76-1.11.32-3.82-.35-4.74.24-.14.09-.24.22-.32.37l-.16,19.91c-.08.66-.85.74-1.41.8-.78.08-3.81.18-4.21-.46l-.12-13.58c-.42-5.19-.76-12.34,6.06-13.04Z"/><path class="cls-1" d="M116.33,16.2c.52-.12,3.85-.12,4.37,0s.71.54.78,1.02l.02,25.05c-.09,1.54-3.08,1.27-4.23,1.18-.78-.06-1.55-.16-1.72-1.05v-24.92c0-.55.18-1.15.78-1.28Z"/><path class="cls-1" d="M191.1,16.2c.49-.11,3.89-.12,4.4-.03.3.06.71.47.76.76v25.48c-.1,1.4-3.16,1.12-4.23,1.04-1.36-.1-1.57-.27-1.71-1.62.42-7.77-.62-16.25-.02-23.94.05-.59.11-1.54.8-1.7Z"/><path class="cls-1" d="M100.79,55.35h4.43c.56,0,1.4.76,1.58,1.32.4,1.21.14,2.1-.68,3.02,1.19.95,1.7,2.45.68,3.76-.27.35-1.18.9-1.59.9h-4.43l-.21-.21v-8.58l.21-.21ZM104.95,56.6c-.78-.17-2.13.13-2.98,0-.15.52-.3,1.99.07,2.36.83.15,2.4.42,3.17-.02s.5-2.17-.26-2.34ZM102.63,60.37c-1.14.21-.85,1.83-.67,2.67,1.31,0,4.13.69,4.03-1.39-.07-1.53-2.26-1.49-3.37-1.28Z"/><path class="cls-1" d="M128.83,55.56c.1-.33.97-.25,1.21-.03l2.88,5.22,2.84-5.05c.16-.39,1.12-.5,1.33-.22.34.49-.13,7.24.06,8.38-.04.62-1.24.7-1.24.14v-5.68c0-.06.36-.24-.07-.21-.63.53-2.13,4.34-2.89,4.27-.85-.07-2.16-3.58-2.79-4.27-.41.3-.07.76-.06,1.17.02,1.19.16,3.32-.04,4.4-.14.76-.63.9-1.21.45v-8.58Z"/><path class="cls-1" d="M196.09,12.12c-.44.4-3.48.38-4.19.32-.99-.08-1.36-.28-1.46-1.31-.08-.87-.09-2.76,0-3.61.05-.43.25-.84.69-.97.5-.16,3.59-.14,4.23-.07.5.06.79.23.94.72.19.6.17,3.35.1,4.07-.02.21-.18.74-.31.86Z"/><path class="cls-1" d="M116.33,6.51c.62-.14,3.56-.11,4.27-.03.61.07.83.29.9.9s.1,3.95-.03,4.4c-.25.88-3.4.72-4.2.66s-1.48-.07-1.59-1.04c-.1-.88-.1-3.14,0-4.02.05-.44.19-.76.66-.87Z"/><path class="cls-1" d="M148.75,55.11c.74-.03,1.75.18,2.37.6.59.4,1.75,1.75.56,2.08-.72.2-.96-.73-1.57-1.08-1.31-.75-3.94-.18-3.21,1.55.67,1.57,5.26.13,5.47,3.25.23,3.46-4.94,3.91-6.49,1.78-.26-.36-.69-.94-.3-1.36.73-.79,1.41.7,2.01,1.05,1.28.74,3.87.35,3.51-1.43-.36-1.77-4.68-.38-5.48-2.84-.71-2.2,1.11-3.52,3.12-3.6Z"/><path class="cls-1" d="M180.62,56.6c-.17.57-.33,1.99.2,2.36.17.12,1.48.25,1.8.27.61.04,1.73-.39,1.86.51.03.22-.2.59-.33.59h-3.32c-.53,0-.53,2.77.14,2.77h3.88c.44,0,.44,1.25,0,1.25h-5.26c-.18,0-.33-.43-.35-.62-.22-1.65-.14-5.89,0-7.63.02-.27.08-.5.15-.75h5.33c.41,0,.53,1.25-.14,1.25h-3.95Z"/><path class="cls-1" d="M144.2,65.25c-.26,1.98-2.25,2.5-3.95,2.01-.92-.26-2.26-1.51-.71-1.92.41.04.66.78,1.16.91,1.47.37,2.81-.66,2.12-2.12-1.81.48-3.92.32-4.16-1.93-.09-.86-.11-3.04,0-3.88.07-.55.5-.6,1.02-.48.43.1.14,3.47.24,4.08.22,1.45,2.09,1.91,3.04.84v-4.71c.34-.37.9-.37,1.25,0v7.2Z"/><path class="cls-1" d="M94.87,62.31c-.49-.47-3.22-.46-3.71.06-.61.65-.49,2.78-2.06,1.76.4-1.02,3.08-8.59,3.55-8.76.62-.22.94.03,1.23.52,1.25,2.13,1.87,5.6,3.08,7.86l-.11.53c-1.56.61-1.36-1.39-1.98-1.98ZM91.72,60.89h2.15c.12,0,.29.12.48,0l-1.31-3.88-1.32,3.88Z"/><path class="cls-1" d="M169.13,62.42l1.28-3.91c.18-.76,1.03-.93,1.41-.23.55,1.01.69,2.91,1.26,4.01.23,0,.99-3.9,1.31-4.34.25-.35.76-.14,1.11-.09l-1.82,6.33c-.42.23-.82.3-1.14-.11-.49-.62-.78-2.93-1.17-3.81-.09-.21-.14-.39-.42-.34-.21.65-1,4.17-1.38,4.36-.22.11-.63.13-.84,0-.34-.21-1.78-5.63-1.93-6.43.46-.1.92-.28,1.21.23.52.91.66,3.27,1.14,4.33Z"/><path class="cls-1" d="M210.11,64.35v2.42c0,.38-.96.4-1.25.21v-8.52c0-.77,2.64-.95,3.24-.88,1.6.18,2.18,1.01,2.3,2.54.27,3.38-.66,5.06-4.3,4.23ZM210.13,63.09c1.01.52,2.85.59,3.03-.87.29-2.43-.06-4.3-2.99-3.27l-.04,4.14Z"/><path class="cls-1" d="M154.86,57.64c.07.29,1.32-.09,1.73-.08,1.63.04,2.4.83,2.56,2.43.07.75.12,3.21,0,3.87-.13.69-1.24.65-1.24.14v-4.29s-.34-.62-.42-.69c-.62-.54-1.9-.37-2.6-.04-.18.17.1,4.11-.06,4.85-.14.63-.8.7-1.22.31v-9.07c.39-.21,1.25-.2,1.25.35v2.22Z"/><path class="cls-1" d="M198.89,61.45c-.24,1.45.67,2.31,2.08,2.02.99-.2,1.81-1.91,2.33-.31-1,1.75-4.58,1.95-5.41.05-.4-.91-.38-3.39.04-4.3.8-1.72,4.08-1.77,5.08-.13.31.5.81,2.68-.05,2.68h-4.08ZM199.1,60.48c.46.13,2.27,0,2.91,0,.42,0,.06-1.15-.14-1.38-.41-.48-1.58-.53-2.15-.36-.61.19-1.32,1.54-.62,1.74Z"/><path class="cls-1" d="M230.05,61.45c-.5,1.72,1.28,2.6,2.68,1.78.49-.29.89-1.2,1.58-.5.65.67-1.32,1.69-1.97,1.76-3.41.39-3.86-1.75-3.53-4.64.39-3.42,6.21-2.91,5.83.83-.03.3-.37.76-.63.76h-3.95ZM230.26,60.48c.45.13,2.27,0,2.91,0,.47,0,.02-1.5-.75-1.74-.41-.13-1.23-.12-1.63.04-.53.21-1.26,1.48-.52,1.7Z"/><path class="cls-1" d="M122.19,55.29c.06-.21.52-.42.76-.35.89.14.34,2.11.34,2.71,0,.87.36,1.76.02,2.69,1.89.89,2.35-3.61,4.23-2.35.13.16.01.23-.07.35-.4.58-1.71,1.65-1.67,2.34.04.56.67.81.89,1.2.1.19.09.46.19.64.12.23.88,1.54.86,1.63-.06.32-.91.26-1.19.08-.76-.49-.97-3.58-3.09-2.63.07.45-.14.88-.16,1.31s.34.95-.06,1.31c-.26.23-.82.22-1.04-.07v-8.86Z"/><path class="cls-1" d="M110.66,57.61c2.91-.32,3.65,1.47,3.5,4.05-.14,2.33-1.42,3.08-3.67,2.83s-2.31-2.52-2.14-4.36c.14-1.49.78-2.36,2.32-2.52ZM110.8,58.71c-.5.08-.96.31-1.12.82-.27.86-.35,3.46.73,3.79,1.25.38,2.27.06,2.46-1.29.25-1.69.14-3.68-2.08-3.32Z"/><path class="cls-1" d="M162.58,57.61c1.37-.19,3.2.3,3.46,1.87.13.8.11,2.79-.14,3.53-.72,2.19-5.05,1.95-5.47-.14-.13-.62-.15-3.04.04-3.64.3-.97,1.13-1.49,2.11-1.62ZM162.72,58.71c-1.5.35-1.59,3.65-.52,4.48.8.61,2.19.31,2.6-.6.18-.39.11-2.37.03-2.86-.14-.92-1.32-1.2-2.11-1.02Z"/><path class="cls-1" d="M117.44,57.61c1.39-.18,2.96.22,3.32,1.73.18.73.13,2.24.02,3-.42,3.09-5.3,3.12-5.65-.14-.22-2.04-.16-4.26,2.3-4.58ZM117.58,58.71c-.5.08-.96.31-1.12.82-.26.84-.31,3.21.55,3.7,1.31.74,2.52,0,2.68-1.43.19-1.65.01-3.42-2.11-3.08Z"/><path class="cls-1" d="M223.86,58.99c-.23.25-.25,1.03.06,1.22,1.2.76,4.52-.24,3.89,2.8-.45,2.18-5.44,2.09-5.35-.44,1.01-.52.98.19,1.54.57.99.67,3.08.43,2.57-1.05-.27-.8-3.82-.03-4.12-2.11-.42-2.93,4.74-3.26,5.24-.71-.87,1.02-1.28-.38-2.16-.57-.43-.09-1.35-.05-1.66.28Z"/><path class="cls-1" d="M191.83,64.01c-.1.58-1.08.45-1.22-.03-.31-1.07.37-4.07-.3-4.82s-1.97-.48-2.77-.2v5.05c0,.44-1.25.44-1.25,0v-5.4c0-.67,1.89-1.01,2.43-1.04.92-.05,2.35.15,2.81,1.07.05.1.31.89.31.94,0,1.22.18,3.34,0,4.43Z"/><path class="cls-1" d="M196.94,58.8c-.49.4-1.66-.39-1.89.39-.15.52-.07,3.27.21,3.74.29.5,1.09.41,1.57.51l.11.82-.21.21c-1.27.16-2.48-.09-2.76-1.5-.21-1.05.18-3.01-.08-3.79-.2-.6-1.13.09-1.34-.61-.34-1.11.89-.49,1.23-.93.32-.39-.13-.9.14-1.31,1.65-.34.79.77,1.21,1.31.31.4,1.23.06,1.68.25l.11.89Z"/><path class="cls-1" d="M204.57,58.47c.19-.66,2.81-1.08,3.32-.83.39.19.3.7.11,1.01-.53.15-1.87.04-2.12.58-.39.81.21,3.72-.1,4.75-.15.52-1.22.55-1.22.03v-5.54Z"/><path class="cls-1" d="M217.07,58.99c-.49.84.21,4.92-.45,5.3-.72.42-.93-.06-.98-.69-.05-.69-.09-4.83.08-5.2.31-.69,3.88-1.41,3.51-.1-.17.61-1.69.38-2.16.68Z"/><path class="cls-1" d="M220.08,58.05c.14-.45,1.11-.23,1.11,0v6.09c-.27.32-.86.31-1.11,0v-6.09Z"/></g></svg>