<?xml version="1.0" encoding="UTF-8"?><svg id="Layer_2" xmlns="http://www.w3.org/2000/svg" viewBox="0 0 563.03 411.34"><defs><style>.cls-1{fill:#fff;}</style></defs><g id="Layer_1-2"><path class="cls-1" d="M308.83,150.17c.61,2.22,4.6,2.85,6.02.6,6.21-9.18,12.2-18.59,19.03-27.33,9.01-11.53,30.57-35.47,44.66-39.03,24.92-6.29,16.03,27.31-.67,27.55-3.89-6.62,5.85-11.57,5.62-18.08-1.36-.17-2.52.28-3.75.76-10.09,3.91-35.22,28.08-37.05,38.81-.22,1.31-.61,7.91.76,7.97,8.65-3.38,23.08-20.83,31.38-21.62,8.48-.81.12,12.63,2.65,16.82,1.08.74,5.88-3.29,6.93-4.19,18.16-15.55,38.37-45.27,58.14-56.85,5.94-3.48,18.42-6.08,20.28,3.1,1.7,8.34-2.94,28.95-13.47,29.62-5.4.34-2.09-4.44-1.61-6.45.5-2.12.55-4.31,1.03-6.19.62-2.38,2.16-4.13,2.16-6.88,0-2.13-3.31.02-4.19.63-9.77,6.77-19.64,21.82-29.82,29.18-1.4,2.7-6.05,14.38-1.19,15.04,3.58.49,11.22-8.39,14.43-10.84,5.17-3.94,20.28-13.91,18.95-.31-.25,2.57-1.97,4.33-1.8,6.92,1.13,0,2.65-.28,3.56-.95,1.87-1.37,6.63-8.19,8.77-10.5,6.23-6.71,11.9-12.42,17.42-19.91,5.1-6.92,17.83-30.26,23.03-33.56,5.21-3.31,11.96-2.79,10.79,4.74-6.91,12.63-12.46,26.54-19.3,39.11-1.85,3.41-4.99,6.34-5.73,10.22.6.66,3.81-2.78,4.21-3.31,2.08-2.72,3.63-6.02,6.04-9.01,5.06-6.28,24.1-27.98,30.57-30.23,5.25-1.82,12.29,2.42,12.79,7.94.31,3.33-4.03,14.86-5.44,18.67-1.32,3.58-2.87,7.02-4.71,10.36l.78,2.56c1.6.05,14.12-12.69,16.55-14.74,3.25-2.75,11.09-10.03,15.28-8.64,1.65.92,1.06,3.77.72,5.37-1.61,7.59-20.49,24.67-27.14,29.45-4.86,3.49-9.49,5.43-15.16,1.94-9.15-5.63-1.34-15.75-1.33-22.7,0-7.55-6.68,2.94-8.17,4.53-4.99,5.36-11.49,10.85-15.95,16.56-2.06,2.63-3.59,7.43-5.73,9.32-2.8,2.48-9.33,4.47-12.99,3.33-2.34-.72-4.32-5.12-6.89-5.11-3.11.01-11.03,7.49-15.33,8.71-3.28.94-10.67.69-13.7-.8-1.42-.7-2.26-2.4-3.19-2.83-4.13-1.91-8.76,3.7-12.31,5.13-5.42,2.19-13.58.89-17.18-3.94-1.33-1.79-2.3-6.39-5.13-6.29-9.09,4.8-18.48,17.84-29.96,15.48-5.39-1.11-4.99-8.64-8.52-8.3-2.08.2-12.5,9.3-16.19,10.96-9.5,4.27-10.91-.49-15.15-7.91-1.09-.11-3.9,4.42-4.82,5.4-5.43,5.82-16.23,16.16-24.36,9.89-6.27-4.84-2.32-17.6-3.05-24.34-1.35-1.31-6.78,4.33-8.23,5.32-5.78,3.95-17.52,9.27-18.8-1.47-.79-6.65,1.87-11.31,2.34-17.69-5.11.95-6.3,6.76-8.77,10.19-1.33,1.86-3.66,3.35-5.06,5.17-4.04,5.25-12.61,19.87-19.65,20.12-8.21.3-.21-15.58-3.85-17.74-3.69-2.2-13,4.72-18.47-.5-1.39-1.33-3.92-7.76-6.45-6.99-9.13,10.72-18.94,20.83-28.38,31.26-4.93,5.45-9.4,11.54-14.43,16.87-2.53,2.68-6.38,7.79-10.2,4.16-5.52-5.25,1.29-22.89,3.95-29.06,8.83-20.47,24.55-37.57,33.37-58.14,1.85-2.02,6.2-1.7,6.35,1.46.08,1.72-2.98,7.95-3.95,9.96-7.22,15.12-17.5,30.4-24.34,45.5-.66,1.46-2.1,3.87-.38,5.03,8.86-10.45,16.85-21.65,25.61-32.18,3.83-4.61,15.35-19.19,19.3-21.63,2.83-1.75,6.96-4.02,8.81.11,3.23,7.2-6.31,17.71-2.66,22.24,2.7,3.35,14.31.21,17.22-2.59,3.6-3.47,8.59-17.05,11.39-22.32,3.02-5.67,6.67-11.06,9.84-16.64,1.85-3.26,3.24-11.09,8.63-7.03,2.26,3.81-3.75,12.85-5.42,16.87-.97,2.33-1.45,4.88-2.43,7.2-1.19,2.83-11.42,23.69-10.52,24.69,1.42.06,2.46-1.49,3.26-2.45,5.29-6.37,20.32-31.32,27.27-32.93,5.03-1.16,9.04,1.37,8.99,6.7-.03,3.75-5.2,18.56-7.12,22.27-.75,1.45-2.95,3.46-3.27,4.6-.4,1.41,1.47,3.14.97,4.83.98.16,1.63-.47,2.36-.95,6.38-4.24,12.71-12.28,21.12-11.69v31.6Z"/><path class="cls-1" d="M379.42,323.07c1.98,1.94,6.29-.98,8.11-2.12,29.75-18.59,53.17-75.45,76.39-104.81,3.68-4.65,17.63-20.95,22.86-21.7,7.27-1.04,4.48,5.29,2.31,8.95-8.07,13.61-20.72,28.27-29.89,41.75-9.41,13.84-18.16,28.04-26.95,42.28-.02,2.33,3.25-.44,3.89-.93,9.99-7.68,18.15-19.99,29.63-25.76,2.23-1.12,7.57-3.59,9.51-1.29,4.02,9.13-3.93,16.2-9.91,21.96-5.64,5.43-21.49,17.02-24.11,23.45-2.61,6.4.35,19.75,1.4,26.93.69,4.7,4.26,14.76.46,18.26-4.8,4.41-11.4-7.76-12.7-11.44-1.81-5.11-2.14-10.63-2.69-15.98-4.29-.34-11.18,10.62-14.8,13.5-8.73,6.96-15.77,4.37-14.4-7.47-9,3.87-17.84,12.5-28.45,10.69-4.86-.83-7.57-5.38-7.69-10.07-2.12-2.01-10.95,7.51-12.94,9-7.71,5.8-19.81,9.64-29.35,7.09-6.56-1.75-7.31-6.41-9.42-11.65-.26-.64.38-1.01-.94-.85-2.12.26-10.09,6.54-13.15,7.93-4.79,2.18-11.94,3.83-16.63.77-1.41-.92-3.69-4.44-5.13-4.48-8.29,4.82-18.59,14.73-29.08,10.99-14.01-4.99-3.34-27.87,1.57-36.69,7.46-13.39,20.46-26.13,34.72-32.11,21.54-9.04,27.63,12.45,14.78,25.62-4.14,4.24-13.01,7.17-9.94-2.12,1.45-4.4,6.82-8.98,4.74-13.3-5.47-1.52-21.24,13.59-24.91,17.82-4.2,4.85-14.46,18.9-15.53,24.81-.15.85-.21,1.7-.14,2.56,3,2.98,18.54-12.84,21.47-14.95,2.4-1.72,13-8.31,14.95-4.32,2.05,4.19-3.27,15.03-2.67,17.08.62,2.12,3.85.34,4.98-.33,15.24-8.93,38.07-52.94,49.28-69.31,13.61-19.88,47.27-61.44,70.81-67.65,11.17-2.95,17.66,1.96,14.75,13.54-3.12,12.41-21.19,34.94-30.56,44.09-6.9,6.74-15.18,12.09-22.3,19.24-9.4,9.43-16.22,14.72-26.19,23.17-10.1,8.57-24.74,20.89-21.1,35.56,1.93,1.34,9.84-.77,12.11-1.82,15.89-7.31,24.33-19.26,35.48-31.35,2.13-2.31,11.18-11.74,13.29-12.6,6.56-2.67,8.05,5.3,7.07,10.07-1.39,6.75-10.84,18.18-13.27,25.31-.47.78-.33,2.03.31,2.66ZM404.56,213.68c-1.05-1.04-7.87,4.71-9.04,5.71-10.16,8.73-39.08,36.5-43.88,47.63-.38.88-.85,1.61-.67,2.64,3.46.38,4.5-3.19,6.32-4.81,9.38-8.33,17.88-16.04,26.5-25.28,5.8-6.22,15.84-16.52,19.88-23.46.46-.79,1.21-1.19.88-2.43Z"/><path class="cls-1" d="M202.26,291.92c1.93.07,3.76-1.12,5.14-2.38,22.76-20.74,43.78-48.43,68.02-67.43,7.63-5.98,22.86-15.17,20.72,2.65-21.98,37.89-55.38,69.31-72.92,110.09-2.75,6.38-9.63,30.05-14.61,32.94-5.19,3.01-7.08-4.97-7.01-8.76.11-5.55,5.31-21.74,7.43-27.54,8.66-23.73,24.23-39.17,37.31-59.61,1.11-1.73,2.72-3.75,2.87-5.86-.41-.48-9.13,7.06-9.94,7.81-8.99,8.21-28.37,33.07-38.93,35.72-6.02,1.51-8.76-1.7-9.98-7.25-5.81-26.43,29.65-71.47,42.71-94.26,3.19-5.58,5.78-11.42,8.82-17.06,1.42-2.64,5.43-7.79,6.11-10.14.25-.85-.05-1.07-.88-.88-19.05,15.93-35.18,33.57-50.53,53.02-40.49,51.32-69.73,104.94-105.84,158.44-2.44,3.61-10.09,14.99-12.82,17.28-2.2,1.85-10.64,5.33-7.67-1.06,26.4-48.87,52.91-100.21,86.86-144.31,23.17-30.1,60.17-81.06,92.75-99.3,9.37-5.25,18.62-4.36,14.83,8.81-2.28,7.94-14.55,25.38-19.2,33.78-12.56,22.66-26,46.51-37.54,69.61-1.09,2.18-7.23,14.06-5.7,15.66Z"/><path class="cls-1" d="M140.84,128.8c-1.46-.05-2.9-.06-4.36.15-6.37.9-35.96,7.98-39.9,11.27-8.11,6.76-18.41,25.96-24.84,35.36-4.87,7.11-12.68,20.07-18.18,25.76-7.44,7.7-6.62-1.66-4.33-7.34,6.83-16.99,18.81-31.76,27.21-47.43.39-.73.82-1.14.58-2.12-3.48-.17-6.97.6-10.36,1.38-6.18,1.42-14.24,3.69-20.34,5.54-13.81,4.19-27.15,9.98-40.87,14.44-5.19-.64-7.79-4.57-2.68-8.02,9.79-6.61,34.72-15.41,46.56-19.06,11.28-3.47,23.78-5.27,34.53-10.02,11.54-5.09,18.81-17.65,27.17-27.01,26.59-29.77,57.19-60.82,88.88-85.1,7.41-5.68,23.15-17.99,32.61-16.47,13.18,2.11,2.98,19.28-.87,25.32-12.11,19.01-30.16,38.22-44.08,56.46-6.96,9.12-13.19,18.79-20.59,27.58l.65,1.83c3.83-2.9,17.13-1.68,13.85,5.42-2.24,4.85-15.41,5.36-20.39,7.91-5.37,2.75-8.51,9.63-11.14,14.75-6.57,12.76-11.64,27.69-18.41,39.98-.97,1.75-3.06,5.48-4.98,5.89-5.07,1.07-6.4-4.54-5.44-8.48l19.72-47.99ZM113.14,122.17c1.26.07,2.5.03,3.76-.15,6.84-1,20.08-4.65,26.95-6.77,11.86-3.66,10.79-7.74,16.97-16.74,14.6-21.27,30.34-38.63,46.23-58.51,4.58-5.73,12.33-15.02,15.29-21.43,1.15-2.48,1.4-4.72-1.73-2.33-32.92,25.25-65.79,57.54-93.32,88.49-2.63,2.95-12.83,12.58-13.83,15.07-.32.81-.44,1.51-.33,2.38Z"/><path class="cls-1" d="M401.99,260.13c3.78-.79,7.03,2.43,6.81,6.2-.19,3.26-4.53,11.73-8.15,11.72-.66,0-6.58-2.67-6.97-3.22-3.39-4.73,3.74-13.74,8.32-14.69Z"/></g></svg>